<?xml version="1.0" encoding="UTF-8" standalone="no"?>
<svg
   xmlns:dc="http://purl.org/dc/elements/1.1/"
   xmlns:cc="http://creativecommons.org/ns#"
   xmlns:rdf="http://www.w3.org/1999/02/22-rdf-syntax-ns#"
   xmlns:svg="http://www.w3.org/2000/svg"
   xmlns="http://www.w3.org/2000/svg"
   xmlns:sodipodi="http://sodipodi.sourceforge.net/DTD/sodipodi-0.dtd"
   xmlns:inkscape="http://www.inkscape.org/namespaces/inkscape"
   width="1903"
   height="486"
   id="svg3001"
   version="1.1"
   inkscape:version="0.48.4 r9939"
   sodipodi:docname="slide.svg">
  <metadata
     id="metadata3011">
    <rdf:RDF>
      <cc:Work
         rdf:about="">
        <dc:format>image/svg+xml</dc:format>
        <dc:type
           rdf:resource="http://purl.org/dc/dcmitype/StillImage" />
      </cc:Work>
    </rdf:RDF>
  </metadata>
  <defs
     id="defs3009" />
  <sodipodi:namedview
     pagecolor="#ffffff"
     bordercolor="#666666"
     borderopacity="1"
     objecttolerance="10"
     gridtolerance="10"
     guidetolerance="10"
     inkscape:pageopacity="0"
     inkscape:pageshadow="2"
     inkscape:window-width="1680"
     inkscape:window-height="997"
     id="namedview3007"
     showgrid="false"
     inkscape:zoom="0.31777778"
     inkscape:cx="450"
     inkscape:cy="250"
     inkscape:window-x="-8"
     inkscape:window-y="-8"
     inkscape:window-maximized="1"
     inkscape:current-layer="svg3001" />
  <rect
     width="900"
     height="500"
     fill="#777"
     id="rect3003" />
  <text
     text-anchor="middle"
     x="450"
     y="250"
     style="fill:#555;font-weight:bold;font-size:56px;font-family:Arial,Helvetica,sans-serif;dominant-baseline:central"
     id="text3005">First slide</text>
  <path
     style="fill:#999999;fill-opacity:1"
     d="M 0,250 0,1.3986014 l 450,0 450,0 L 900,250 l 0,248.6014 -450,0 -450,0 L 0,250 z m 415.59149,-0.11071 c 8.40137,-4.49627 7.76247,-12.48809 -0.99359,-12.4285 -5.84191,0.0397 -6.25475,0.6236 -2.36014,3.33779 3.51098,2.44681 2.10009,2.77352 -5.50699,1.2752 -11.16437,-2.19897 -13.93575,2.30666 -4.72028,7.67417 6.90923,4.02426 6.33685,4.0183 13.581,0.14136 l 0,-2e-5 z m 24.96795,-3.22186 c 0,-1.62863 -2.12413,-2.96114 -4.72028,-2.96114 -5.94459,0 -6.53623,-17.9668 -0.64007,-19.43709 3.20063,-0.79812 3.29513,-2.56895 0.43836,-8.21454 l -3.64186,-7.19709 -5.23117,7.9838 c -2.87716,4.39109 -3.78245,7.9838 -2.01178,7.9838 1.77067,0 3.21939,5.54633 3.21939,12.32518 0,7.0097 1.69644,12.9337 3.93356,13.73618 4.75993,1.70744 8.65385,-0.19101 8.65385,-4.2191 z m 34.82226,3.22185 c 6.72696,-3.60016 8.3751,-15.59551 2.15327,-15.67173 -2.61107,-0.032 -2.34658,-1.05173 0.78671,-3.03305 7.70903,-4.87479 -3.44669,-14.04988 -13.89449,-11.42764 -10.79723,2.70993 -10.96137,13.58949 -0.26622,17.65573 4.32692,1.64509 7.86713,3.88768 7.86713,4.98353 0,1.09586 -3.54021,1.10393 -7.86713,0.0179 -9.01785,-2.26334 -10.56792,2.55329 -2.36014,7.33388 6.90923,4.02426 6.33684,4.0183 13.581,0.14136 l -1.3e-4,-2e-5 z M 532.07556,250 c 1.5892,0 2.88947,-9.20455 2.88947,-20.45455 0,-11.53846 -1.37171,-20.45454 -3.14685,-20.45454 -1.73077,0 -3.14685,2.59058 -3.14685,5.75686 0,3.90886 -2.22203,5.67664 -6.92201,5.50699 -4.36368,-0.15753 -8.4172,2.65776 -10.96757,7.61727 l -4.04562,7.86713 -0.54498,-7.86713 c -0.29958,-4.32693 -0.33731,-10.34528 -0.0834,-13.37413 0.25395,-3.02884 -1.44056,-5.50699 -3.7653,-5.50699 -3.04656,0 -4.38388,5.71134 -4.78951,20.45454 C 497.09823,246.07423 497.9166,250 501.81684,250 c 2.83387,0 4.92917,-2.92328 5.07506,-7.08042 0.16048,-4.57625 0.84508,-5.41097 1.9354,-2.36014 2.4925,6.97411 11.17983,12.96289 16.07762,11.08343 2.3546,-0.90358 5.58142,-1.64287 7.17064,-1.64287 z m 31.64926,-3.29797 7.42903,-6.44483 -9.9277,1.90878 c -5.68907,1.09383 -10.80667,0.48658 -11.98642,-1.4223 -1.3011,-2.10522 2.06289,-3.33109 9.14098,-3.33109 12.32767,0 14.76346,-5.42725 6.25465,-13.93607 -10.44214,-10.44214 -24.16333,-3.10912 -24.16333,12.91363 0,7.44178 7.57513,16.7567 13.62697,16.7567 1.20821,0 5.53982,-2.90017 9.62582,-6.44482 l 0,0 z m -220.71783,-4.56916 c 0,-6.29371 1.57343,-7.86714 7.86714,-7.86714 4.89511,0 7.86713,-1.78321 7.86713,-4.72028 0,-2.93706 -2.97202,-4.72028 -7.86713,-4.72028 -4.89512,0 -7.86714,-1.78321 -7.86714,-4.72027 0,-3.14686 3.14686,-4.72028 9.44056,-4.72028 5.19231,0 9.44056,-1.41609 9.44056,-3.14686 0,-1.73077 -6.37238,-3.14685 -14.16084,-3.14685 l -14.16084,0 0,20.45454 c 0,16.08392 1.0086,20.45455 4.72028,20.45455 2.93706,0 4.72028,-2.97203 4.72028,-7.86713 z m 40.94723,-18.85755 c 1.55861,0.96328 2.41975,3.47617 1.91361,5.5842 -0.50614,2.10803 -0.32627,2.77072 0.39968,1.47265 2.07604,-3.71222 7.63898,-2.76677 11.4625,1.94811 4.22912,5.21503 25.09392,0.70203 23.18809,-5.01552 -2.42981,-7.2894 -11.49495,-10.45471 -18.11001,-6.32353 -4.15186,2.59288 -6.30459,2.78229 -6.30459,0.55474 0,-1.8604 -3.89423,-2.93446 -8.65385,-2.38681 -7.96544,0.91653 -8.6743,2.1222 -8.91088,15.15657 l -0.2571,14.16084 1.21931,-13.45133 c 0.67063,-7.39823 2.49458,-12.6632 4.05318,-11.69992 l 6e-5,0 z m 106.95487,6.27013 c 0,-11.53846 -1.37171,-20.45454 -3.14685,-20.45454 -1.77514,0 -3.14686,8.91608 -3.14686,20.45454 0,11.53847 1.37172,20.45455 3.14686,20.45455 1.77514,0 3.14685,-8.91608 3.14685,-20.45455 z m -118.71834,-3.93356 c 0.74848,-9.08654 0.15262,-16.52098 -1.32401,-16.52098 -1.47672,0 -2.57311,8.85052 -2.43648,19.66783 0.28227,22.34639 1.76252,21.10768 3.76049,-3.14685 z"
     id="path3013"
     inkscape:connector-curvature="0" />
  <path
     style="fill:#999999;fill-opacity:1"
     d="M 0,250 0,1.3986014 l 450,0 450,0 L 900,250 l 0,248.6014 -450,0 -450,0 L 0,250 z m 421.67832,-8.25245 c 0,-2.38423 -2.83217,-4.33496 -6.2937,-4.33496 -3.4965,0 -6.29371,2.0979 -6.29371,4.72028 0,2.59615 1.49966,4.72028 3.33258,4.72028 1.83292,0 2.26913,1.7701 0.96936,3.93356 -1.60578,2.6728 -0.65669,2.5493 2.96112,-0.38531 2.9284,-2.37539 5.32435,-6.26962 5.32435,-8.65385 z m 18.88112,6.86474 c 0,-2.49401 -1.47443,-5.44581 -3.2765,-6.55955 -1.80208,-1.11375 -2.86414,-8.48297 -2.36014,-16.37605 0.95249,-14.91663 -4.73016,-22.24598 -8.36607,-10.79033 -1.69461,5.33924 -4.29983,5.9918 -19.93487,4.99336 -15.96877,-1.01976 -17.33265,-0.65394 -12.16338,3.26251 3.20215,2.42607 5.06376,5.63808 4.13689,7.13779 -0.92688,1.49971 3.08785,3.0482 8.92158,3.44108 7.35281,0.49518 11.55103,-0.97289 13.68462,-4.7854 2.53879,-4.53655 3.47353,-3.31141 5.33744,6.99557 1.24279,6.87242 2.86525,13.55737 3.60548,14.85544 2.38582,4.18391 10.41495,2.5076 10.41495,-2.17442 z m 37.07975,0.601 c 1.77926,-2.16346 3.22713,-9.25245 3.2175,-15.75329 -0.0157,-9.84181 -1.28017,-12.13664 -7.56293,-13.71351 -4.14997,-1.04158 -9.6727,-1.07746 -12.27273,-0.0797 -5.67012,2.17583 -6.2082,11.85936 -0.9511,17.11646 2.93705,2.93707 2.93705,3.77623 0,3.77623 -4.99601,0 -4.86906,8.47511 0.15734,10.50331 7.14531,2.8832 14.12988,2.14131 17.41192,-1.84947 l 0,1e-5 z m 56.68291,-18.88112 c 0.86155,-19.66698 -2.47018,-27.77499 -6.78877,-16.52098 -0.99623,2.59615 -3.89961,4.72028 -6.45193,4.72028 -2.55235,0 -6.84503,3.14725 -9.53934,6.9939 -4.80892,6.86574 -4.8987,6.77924 -4.8987,-4.72028 0,-8.3147 -1.36983,-11.71418 -4.72028,-11.71418 -3.71168,0 -4.72028,4.37063 -4.72028,20.45454 0,16.08392 1.0086,20.45455 4.72028,20.45455 2.59615,0 4.72028,-1.71953 4.72028,-3.82118 0,-2.34954 2.12088,-1.69499 5.50699,1.69958 3.05563,3.06327 9.00894,5.11441 13.37413,4.6079 7.41694,-0.86063 7.92037,-2.12842 8.79762,-22.15413 z m 31.25278,16.52098 8.00116,-6.29371 -9.07823,-0.42854 c -7.42154,-0.35034 -7.78613,-0.67742 -1.99781,-1.7923 8.09286,-1.55875 9.50026,-10.73451 2.53334,-16.51653 -7.28613,-6.04695 -18.57798,-2.59071 -23.21046,7.10433 -3.62647,7.58952 -3.51057,9.89678 0.82976,16.52098 6.12346,9.34559 12.34344,9.72705 22.92224,1.40577 l 0,0 z m -221.77277,-4.23037 c 1.30267,-3.19209 5.1969,-6.54344 8.65384,-7.44744 8.43801,-2.2066 7.97709,-9.08057 -0.79511,-11.85751 -6.97837,-2.20909 -6.95571,-2.29116 1.57343,-5.69478 12.76401,-5.09357 10.54463,-8.53214 -5.507,-8.53214 l -14.16084,0 0,20.45454 c 0,14.68532 1.10946,20.23266 3.93357,19.66784 2.16346,-0.4327 4.99941,-3.39843 6.30211,-6.59051 l 0,0 z m 62.14195,2.65694 c 0,-2.59615 -2.12413,-4.72028 -4.72028,-4.72028 -2.59616,0 -4.72028,2.12413 -4.72028,4.72028 0,2.59615 2.12412,4.72028 4.72028,4.72028 2.59615,0 4.72028,-2.12413 4.72028,-4.72028 z m 84.96503,-15.73427 c 0,-11.53846 -1.37171,-20.45454 -3.14685,-20.45454 -1.77514,0 -3.14686,8.91608 -3.14686,20.45454 0,11.53847 1.37172,20.45455 3.14686,20.45455 1.77514,0 3.14685,-8.91608 3.14685,-20.45455 z m -103.86828,0.98065 c 5.16066,-0.85907 5.35809,-1.70244 1.5925,-6.80276 -6.35818,-8.61191 -11.07475,-3.45886 -10.53944,11.51483 0.32334,9.04364 0.87763,10.52968 1.76375,4.72849 0.79511,-5.20536 3.55852,-8.83718 7.18319,-9.44056 l 0,0 z m -12.87896,-11.20792 c 0.17251,-5.625 -1.10241,-10.22727 -2.83318,-10.22727 -1.76941,0 -3.00955,7.92025 -2.83317,18.0944 0.23947,13.80932 0.91035,16.23133 2.83317,10.22728 1.38572,-4.32693 2.66067,-12.46941 2.83318,-18.09441 z"
     id="path3015"
     inkscape:connector-curvature="0" />
  <path
     style="fill:#999999;fill-opacity:1"
     d="M 0,250 0,1.3986014 l 450,0 450,0 L 900,250 l 0,248.6014 -450,0 -450,0 L 0,250 z m 421.67832,-8.25245 c 0,-2.38423 -2.83217,-4.33496 -6.2937,-4.33496 -6.59776,0 -7.57637,2.43642 -4.35279,10.83693 1.5023,3.9149 2.92465,4.24157 6.2937,1.44548 2.39403,-1.98687 4.35279,-5.56322 4.35279,-7.94745 z m 17.39288,8.1146 c 1.11653,-1.80658 0.31575,-5.35031 -1.77948,-7.87494 -2.21611,-2.67024 -3.02334,-8.52136 -1.92991,-13.98857 3.05711,-15.28557 -4.52492,-26.59783 -8.79973,-13.12905 -1.56823,4.94098 -5.13431,5.73929 -24.60018,5.50699 l -22.7661,-0.27168 -0.55167,11.01398 c -0.30336,6.05769 0.15451,8.53584 1.01747,5.50699 0.86299,-3.02884 3.5894,-5.50699 6.05864,-5.50699 2.46927,0 4.56382,-2.47815 4.6546,-5.50699 0.13846,-4.62317 0.95775,-4.37065 5.1041,1.57342 6.00697,8.61133 21.32887,9.60159 25.77012,1.66554 2.47072,-4.41495 3.4476,-3.10745 5.28995,7.08042 1.24279,6.87242 2.86525,13.55737 3.60548,14.85544 1.93135,3.38695 6.55823,2.90774 8.92671,-0.92456 l 0,0 z m 38.86804,-0.97478 c 4.09359,-4.93245 3.75177,-20.67709 -0.57361,-26.42234 -4.25848,-5.65636 -17.7721,-4.84694 -20.09391,1.20357 -1.08422,2.82542 -0.38279,7.68073 1.55873,10.78957 2.65821,4.25646 2.58655,5.97008 -0.29014,6.93854 -2.89174,0.97355 -2.77052,2.55758 0.49877,6.51812 5.22328,6.3276 14.07767,6.78322 18.9001,0.97254 l 6e-5,0 z m 56.38286,-18.5552 c 0.51177,-11.68269 0.15766,-21.24126 -0.78671,-21.24126 -1.63076,0 -4.73687,2.47929 -20.20497,16.12762 -6.67183,5.8869 -6.68706,5.87464 -6.68706,-5.37587 0,-7.61573 -1.27693,-10.85464 -3.93357,-9.97751 -2.4356,0.80414 -4.29036,8.69344 -4.87045,20.71678 -0.76386,15.83223 -0.0375,19.41807 3.93357,19.41807 2.67876,0 4.87045,-1.49638 4.87045,-3.32529 0,-1.84195 3.15843,-1.09841 7.08042,1.66682 3.89423,2.74566 9.91258,4.59606 13.37412,4.11201 5.47543,-0.76568 6.41467,-3.64184 7.2242,-22.12137 z m 30.30926,16.77378 c 5.23473,-5.78432 5.15521,-6.10028 -1.87241,-7.43859 l -7.33937,-1.39768 7.29928,-0.42855 c 10.62334,-0.6237 8.11759,-13.4717 -3.41518,-17.51106 -10.66903,-3.73684 -18.83165,2.85962 -18.83165,15.21843 0,16.41783 13.79042,23.01495 24.15933,11.55745 l 0,0 z m -220.34033,-4.97308 c 2.83513,-4.32693 7.24623,-7.86714 9.80248,-7.86714 7.30659,0 5.42675,-8.45991 -2.43267,-10.9479 -6.97837,-2.20909 -6.95571,-2.29116 1.57343,-5.69478 12.76401,-5.09357 10.54463,-8.53214 -5.507,-8.53214 l -14.16084,0 0,20.45454 c 0,21.98262 2.58256,25.01376 10.7246,12.58742 z m 61.65303,3.14685 c 0,-2.59615 -2.12413,-4.72028 -4.72028,-4.72028 -4.91404,0 -6.24327,3.72178 -2.62237,7.34266 3.62086,3.62087 7.34265,2.29166 7.34265,-2.62238 z m 84.96503,-15.73427 c 0,-11.53846 -1.37171,-20.45454 -3.14685,-20.45454 -1.77514,0 -3.14686,8.91608 -3.14686,20.45454 0,11.53847 1.37172,20.45455 3.14686,20.45455 1.77514,0 3.14685,-8.91608 3.14685,-20.45455 z m -116.65476,-8.46812 c 0.12166,-4.65748 -1.19489,-9.34332 -2.92566,-10.41299 -1.95643,-1.20914 -3.06318,4.37519 -2.92566,14.76183 0.16206,12.23793 0.94456,15.02323 2.92566,10.41299 1.48749,-3.46154 2.80404,-10.10436 2.92566,-14.76183 z"
     id="path3017"
     inkscape:connector-curvature="0" />
  <path
     style="fill:#999999;fill-opacity:1"
     d="M 0,250 0,1.3986014 l 450,0 450,0 L 900,250 l 0,248.6014 -450,0 -450,0 L 0,250 z m 439.0712,-0.13786 c 1.11653,-1.80659 0.31575,-5.35031 -1.77948,-7.87494 -2.09527,-2.52464 -3.08197,-8.48096 -2.19267,-13.23628 0.8893,-4.75532 0.60791,-11.36695 -0.62534,-14.6925 -2.19477,-5.91847 -2.33726,-5.91348 -6.73209,0.23551 -3.78819,5.30018 -7.6866,6.18751 -24.94442,5.6776 -21.20113,-0.62643 -25.23722,1.43731 -24.8782,12.72077 0.11014,3.46154 0.91451,4.5236 1.78748,2.36014 0.87296,-2.16346 3.59336,-3.93357 6.04526,-3.93357 2.45193,0 4.53232,-2.47814 4.6231,-5.50699 0.13846,-4.62317 0.95775,-4.37065 5.1041,1.57343 5.69027,8.15733 17.28375,9.25279 24.24559,2.29094 4.2881,-4.28807 5.01376,-3.54683 6.9318,7.08042 1.17827,6.52844 2.74793,12.93196 3.48816,14.23004 1.93135,3.38695 6.55823,2.90773 8.92671,-0.92456 l 0,-1e-5 z m 38.78273,-2.22228 c 4.25304,-8.07489 3.47054,-22.16361 -1.45816,-26.25408 -6.32599,-5.25011 -20.10206,-0.8227 -20.10206,6.46048 0,3.32642 1.56726,7.01667 3.48281,8.20054 2.45272,1.51586 2.27989,2.89596 -0.58437,4.66616 -3.31971,2.05171 -3.31065,3.4252 0.0494,7.47378 5.46445,6.58425 15.00407,6.30396 18.61241,-0.54688 l -3e-5,0 z m 53.33488,1.73077 c 3.79687,-3.79688 5.36775,-34.4924 1.94057,-37.91958 -1.00964,-1.00962 -4.72686,0.70149 -8.26049,3.80245 -19.74229,17.32486 -18.22553,16.77472 -18.22553,6.61054 0,-10.46892 -4.65958,-15.27687 -7.53741,-7.7774 -1.04674,2.72776 -1.90315,11.92418 -1.90315,20.43647 0,11.65933 1.1643,15.47689 4.72028,15.47689 2.59615,0 4.72028,-1.49638 4.72028,-3.32529 0,-1.86386 3.07375,-1.17235 6.99391,1.57342 8.39942,5.88321 12.52687,6.14717 17.55154,1.1225 z m 25.8042,-0.71928 c 0,-2.47253 -2.12413,-6.61963 -4.72028,-9.21579 -2.59616,-2.59615 -4.72028,-7.73716 -4.72028,-11.42447 0,-3.68731 -1.41609,-5.82902 -3.14686,-4.75934 -4.39417,2.71574 -3.94033,21.54916 0.62938,26.11888 5.16401,5.16401 11.95804,4.75535 11.95804,-0.71928 z M 354.28346,234.26573 c 6.63942,0 5.39496,-4.89272 -2.62262,-10.31098 l -7.08042,-4.78495 8.65385,-2.23373 c 13.34212,-3.44388 10.2526,-7.84516 -5.507,-7.84516 l -14.16084,0 0,18.35664 c 0,21.96878 2.55937,25.62502 10.40158,14.8594 3.22169,-4.42267 7.86364,-8.04122 10.31545,-8.04122 z m 51.6606,11.01399 c 0,-2.59615 -2.12413,-4.72028 -4.72028,-4.72028 -4.91404,0 -6.24327,3.72178 -2.62237,7.34266 3.62086,3.62087 7.34265,2.29166 7.34265,-2.62238 z m 15.17828,-2.62091 c 0.68604,-3.53732 -1.10779,-5.24622 -5.507,-5.24622 -3.58842,0 -6.52443,1.88811 -6.52443,4.1958 0,9.638 10.19338,10.52795 12.03143,1.05042 l 0,0 z m 69.78675,-13.11336 c 0,-9.51923 -1.41608,-17.30769 -3.14685,-17.30769 -1.73077,0 -3.14686,7.78846 -3.14686,17.30769 0,9.51924 1.41609,17.3077 3.14686,17.3077 1.73077,0 3.14685,-7.78846 3.14685,-17.3077 z m 78.67133,12.4017 c 0,-0.76324 -1.41608,-1.38771 -3.14685,-1.38771 -1.73077,0 -3.14686,1.49966 -3.14686,3.33257 0,1.83291 1.41609,2.45739 3.14686,1.38771 1.73077,-1.06967 3.14685,-2.56933 3.14685,-3.33257 z M 374.25433,219.31818 c 0.12166,-3.89423 -1.19489,-7.08042 -2.92566,-7.08042 -1.73077,0 -3.04732,6.01836 -2.92566,13.37413 0.17119,10.358 0.83108,11.95477 2.92566,7.08042 1.48749,-3.46154 2.80404,-9.4799 2.92566,-13.37413 z m 193.57716,15.23153 c 2.79944,-4.52962 -1.60206,-12.87139 -6.79157,-12.87139 -3.01141,0 -4.02876,1.80204 -2.81017,4.97765 1.05058,2.73771 1.91011,6.27792 1.91011,7.86714 0,3.72856 5.39216,3.74721 7.69163,0.0267 l 0,-1.4e-4 z"
     id="path3019"
     inkscape:connector-curvature="0" />
  <path
     style="fill:#999999;fill-opacity:1"
     d="M 0,250 0,1.3986014 l 450,0 450,0 L 900,250 l 0,248.6014 -450,0 -450,0 L 0,250 z m 529.96037,0.46016 c 0.91325,-1.47769 -1.83534,-4.27949 -6.10801,-6.22624 -6.31189,-2.87591 -7.76844,-2.68569 -7.76844,1.0145 0,2.95472 1.83902,3.84836 5.23649,2.54462 3.52098,-1.35113 4.49109,-0.8033 2.96115,1.67219 -1.25147,2.02489 -0.85928,3.68162 0.87149,3.68162 1.73077,0 3.89404,-1.20901 4.80732,-2.68669 z M 553.84615,250 c 0,-1.73077 -1.41608,-3.14685 -3.14685,-3.14685 -1.73077,0 -3.14685,1.41608 -3.14685,3.14685 0,1.73077 1.41608,3.14685 3.14685,3.14685 1.73077,0 3.14685,-1.41608 3.14685,-3.14685 z m -217.08044,-21.23466 -1.52103,-21.24786 -1.01785,16.93259 c -0.89345,14.86302 0.43225,25.53609 3.17442,25.55653 0.48701,0.004 0.20109,-9.55493 -0.63554,-21.24126 z m 168.79494,7.80064 c -0.86202,-2.13052 -1.5148,0.37458 -1.45067,5.56689 0.0642,5.1923 0.76941,6.93546 1.56726,3.87367 0.79785,-3.06178 0.7454,-7.31003 -0.11675,-9.44056 l 1.6e-4,0 z m -73.35585,5.43117 c -1.0249,-2.6708 -2.53835,-4.1811 -3.3632,-3.35622 -0.82489,0.82488 -0.56637,3.01008 0.57446,4.856 3.10295,5.02068 4.91658,4.04531 2.78874,-1.49978 z m 137.37562,-0.05 c 0,-0.76324 -1.41608,-1.38771 -3.14685,-1.38771 -1.73077,0 -3.14686,1.49966 -3.14686,3.33257 0,1.83291 1.41609,2.45739 3.14686,1.38771 1.73077,-1.06967 3.14685,-2.56933 3.14685,-3.33257 z m -227.63618,-8.46813 c -0.87297,-2.16346 -1.58724,-0.39336 -1.58724,3.93357 0,4.32692 0.71427,6.09703 1.58724,3.93356 0.87297,-2.16346 0.87297,-5.70367 0,-7.86713 z m 128.11245,2.45806 c -0.93304,-2.43144 -3.70338,-3.65067 -6.15628,-2.7094 -2.82361,1.08353 -4.55098,-0.43252 -4.70829,-4.13226 -0.15389,-3.62041 -0.8754,-4.27784 -1.89636,-1.72802 -1.90866,4.76684 8.01802,16.97019 11.86848,14.59048 1.42389,-0.88 1.82546,-3.58936 0.89245,-6.0208 l 0,0 z m 18.92999,-7.8807 c 0.19196,-6.9721 -0.71308,-12.67547 -2.01116,-12.67415 -1.29807,0.001 -2.36014,6.61078 -2.36014,14.6877 0,17.73073 3.87693,15.94491 4.3713,-2.01355 z M 503.622,226.3986 c 2.14043,5.22342 2.61661,4.58607 2.80016,-3.74785 0.24326,-11.04979 -4.31483,-16.38552 -7.31621,-8.56411 -1.04674,2.72776 -1.66509,10.86211 -1.37417,18.07633 l 0.52902,13.11675 1.3911,-12.58741 c 1.12808,-10.20752 1.8787,-11.39747 3.9701,-6.29371 l 0,0 z m 43.65815,4.21147 c -2.28266,-4.26518 -4.46214,-5.74244 -5.20115,-3.52539 -0.69964,2.0989 0.5997,5.84654 2.8874,8.32808 5.8229,6.31627 6.97953,3.91541 2.31375,-4.80269 l 0,0 z m 13.73888,0.384 c -0.92316,-3.53019 -2.38163,-5.71539 -3.24101,-4.856 -1.70245,1.70243 1.30465,11.27452 3.54191,11.27452 0.75767,0 0.62226,-2.88834 -0.30084,-6.41852 l -6e-5,0 z m -170.80924,-6.66493 c 0,-2.24357 1.625,-2.0728 4.72028,0.49603 2.97658,2.47033 4.72028,2.68128 4.72028,0.57104 0,-1.84055 -1.30997,-4.15606 -2.91103,-5.14557 -4.36667,-2.69875 -19.11694,4.94813 -19.11694,9.91065 0,3.35074 1.41872,3.5666 6.2937,0.95759 3.46154,-1.85256 6.29371,-4.90794 6.29371,-6.78974 z m 41.69332,5.21631 c 0.96262,3.71111 1.78234,1.3158 1.99759,-5.83728 l 0.36503,-12.131 -7.81275,7.41072 c -4.29703,4.07589 -7.81556,8.8268 -7.81896,10.55756 -0.003,1.73077 1.36653,1.02273 3.0443,-1.57342 2.53753,-3.92654 3.09578,-3.66197 3.31984,1.57342 0.26937,6.29371 0.26937,6.29371 2.77086,0 2.50153,-6.2937 2.50153,-6.2937 4.13409,0 z m 45.35581,-5.50699 c -0.87297,-2.16346 -1.58724,-0.39336 -1.58724,3.93357 0,4.32692 0.71427,6.09703 1.58724,3.93356 0.87297,-2.16346 0.87297,-5.70367 0,-7.86713 z M 372.09886,220.1049 c 0.82715,-4.32693 0.2842,-7.86714 -1.20656,-7.86714 -1.49076,0 -2.71048,3.54021 -2.71048,7.86714 0,4.32692 0.54296,7.86713 1.20656,7.86713 0.66364,0 1.88333,-3.54021 2.71048,-7.86713 z m 162.61773,-2.74546 c -0.15482,-2.21076 -0.84918,-2.05812 -1.8422,0.40492 -0.87655,2.17425 -2.65289,3.2986 -3.94735,2.49857 -1.29449,-0.80004 -2.35362,0.58474 -2.35362,3.07728 0,3.41978 1.02965,3.67737 4.19582,1.04969 2.30768,-1.91522 4.08399,-5.07892 3.94735,-7.03046 z"
     id="path3021"
     inkscape:connector-curvature="0" />
  <path
     style="fill:#999999;fill-opacity:1"
     d="M 0,250 0,1.3986014 l 450,0 450,0 L 900,250 l 0,248.6014 -450,0 -450,0 L 0,250 z m 505.39774,-14.88199 c -1.0457,-1.04568 -1.78943,0.81294 -1.65279,4.13024 0.15105,3.66591 0.89666,4.41157 1.9012,1.90123 0.90903,-2.27164 0.79726,-4.9858 -0.24829,-6.03147 l -1.2e-4,0 z m 44.25262,1.24563 c 0,-2.3077 -1.86564,-4.19581 -4.14585,-4.19581 -3.09808,0 -3.26581,1.0604 -0.66364,4.19581 1.9152,2.30769 3.78085,4.1958 4.14585,4.1958 0.365,0 0.66364,-1.88811 0.66364,-4.1958 l 0,0 z m -61.5965,-10.75175 c -1.17079,-8.68141 -1.90133,-9.86863 -2.76382,-4.49142 -1.08051,6.73646 0.86381,16.29212 3.31496,16.29212 0.57219,0 0.32415,-5.31032 -0.55114,-11.8007 z m 11.31816,-3.14686 c -0.79153,-3.02884 -1.43915,-0.55069 -1.43915,5.507 0,6.05769 0.64762,8.53584 1.43915,5.50699 0.79149,-3.02885 0.79149,-7.98514 0,-11.01399 l 0,0 z m -33.63775,10.61259 c 0,-0.65346 -2.47815,-3.13161 -5.507,-5.50699 -4.9911,-3.91428 -5.1024,-3.80297 -1.18812,1.18811 4.11095,5.24187 6.69512,6.90885 6.69512,4.31888 z m 11.52465,-9.03916 c -0.87297,-2.16346 -1.58724,-0.39336 -1.58724,3.93357 0,4.32692 0.71427,6.09703 1.58724,3.93356 0.87297,-2.16346 0.87297,-5.70367 0,-7.86713 z m -107.01295,-9.50045 c -0.86202,-2.13052 -1.51481,0.37458 -1.45067,5.56689 0.0642,5.1923 0.7694,6.93546 1.56726,3.87367 0.79785,-3.06178 0.74539,-7.31004 -0.11644,-9.44056 l -1.5e-4,0 z m 157.17974,4.84573 c -1.0457,-1.04567 -1.78943,0.81294 -1.65279,4.13024 0.15105,3.66591 0.89666,4.41158 1.9012,1.90123 0.90903,-2.27163 0.79726,-4.9858 -0.24828,-6.03147 l -1.3e-4,0 z"
     id="path3023"
     inkscape:connector-curvature="0" />
  <path
     style="fill:#999999;fill-opacity:1"
     d="M 0,250 0,1.3986014 l 890.55944,0 890.55946,0 0,248.6013986 0,248.6014 -890.55946,0 L 0,498.6014 0,250 z m 1089.8455,-10.62867 c 0,-0.65346 -4.9043,-3.13161 -10.8985,-5.50699 -9.8775,-3.91428 -10.0977,-3.80298 -2.3513,1.18811 8.1357,5.24186 13.2498,6.90885 13.2498,4.31888 z m -126.48857,-16.9063 c -1.56643,-3.02884 -2.84811,-0.55069 -2.84811,5.507 0,6.05769 1.28168,8.53584 2.84811,5.50699 1.5664,-3.02885 1.5664,-7.98514 0,-11.01399 z m 24.74232,1.57343 c -1.72763,-2.16346 -3.1412,-0.39336 -3.1412,3.93357 0,4.32692 1.41357,6.09703 3.1412,3.93356 1.7276,-2.16346 1.7276,-5.70367 0,-7.86713 z m 55.68725,-4.65472 c -2.0694,-1.04567 -3.5413,0.81294 -3.2709,4.13024 0.299,3.66591 1.7745,4.41158 3.7625,1.90123 1.799,-2.27163 1.5778,-4.9858 -0.4913,-6.03147 l -3e-4,0 z m -311.38438,-3.14685 c -2.06946,-1.04567 -3.5413,0.81294 -3.27091,4.13024 0.29893,3.66591 1.77453,4.41158 3.76254,1.90123 1.79899,-2.27164 1.57777,-4.9858 -0.49138,-6.03147 l -2.5e-4,0 z"
     id="path3025"
     inkscape:connector-curvature="0" />
  <path
     style="fill:#999999;fill-opacity:1"
     d="m 868.53146,248.25175 0,-248.60140063 450.00004,0 450,0 0,248.60140063 0,248.6014 -450,0 -450.00004,0 0,-248.6014 z m 550.69934,-10.62867 c 0,-0.65346 -2.4781,-3.13161 -5.507,-5.50699 -4.9911,-3.91428 -5.1024,-3.80298 -1.1881,1.18811 4.111,5.24186 6.6951,6.90885 6.6951,4.31888 z m -63.9147,-16.9063 c -0.7915,-3.02884 -1.4391,-0.55069 -1.4391,5.507 0,6.05769 0.6476,8.53584 1.4391,5.50699 0.7915,-3.02885 0.7915,-7.98514 0,-11.01399 z m 12.5023,1.57343 c -0.873,-2.16346 -1.5872,-0.39336 -1.5872,3.93357 0,4.32692 0.7142,6.09703 1.5872,3.93356 0.873,-2.16346 0.873,-5.70367 0,-7.86713 z m 28.1388,-4.65472 c -1.0457,-1.04567 -1.7894,0.81294 -1.6528,4.13024 0.1511,3.66591 0.8967,4.41158 1.9012,1.90123 0.9091,-2.27163 0.7973,-4.9858 -0.2482,-6.03147 l -2e-4,0 z m -157.3426,-3.14685 c -1.0457,-1.04567 -1.7895,0.81294 -1.6528,4.13024 0.151,3.66591 0.8966,4.41158 1.9012,1.90123 0.909,-2.27164 0.7972,-4.9858 -0.2483,-6.03147 l -10e-5,0 z"
     id="path3025-1"
     inkscape:connector-curvature="0" />
</svg>
